<?xml version="1.0" encoding="utf-8"?>
<!-- Generator: Adobe Illustrator 26.0.0, SVG Export Plug-In . SVG Version: 6.00 Build 0)  -->
<svg version="1.1" id="Layer_1" xmlns="http://www.w3.org/2000/svg" xmlns:xlink="http://www.w3.org/1999/xlink" x="0px" y="0px"
	 viewBox="0 0 597.8 97.1" style="enable-background:new 0 0 597.8 97.1;" xml:space="preserve">
<style type="text/css">
	.st0{fill:#EACEDC;}
	.st1{fill:#062D19;}
	.st2{fill:#18AA61;}
</style>
<path class="st0" d="M42.8,91.9H19.6V7.5h60.6v10.8H42.8v26.1h28.8v10.7H42.8V91.9z M179.9,58c0,3.5-0.5,6.8-1.4,9.9
	s-2.2,5.9-3.9,8.6c-1.6,2.6-3.6,5-6,7.1c-2.3,2.1-4.9,3.8-7.7,5.3c-2.8,1.4-5.8,2.6-9,3.3c-3.2,0.8-6.4,1.2-9.8,1.2
	c-3.4,0-6.6-0.4-9.8-1.2c-3.2-0.8-6.2-1.9-9-3.3s-5.3-3.2-7.7-5.3c-2.3-2.1-4.4-4.5-6-7.1s-2.9-5.5-3.9-8.6
	c-0.9-3.1-1.4-6.4-1.4-9.9s0.5-6.8,1.4-9.8c0.9-3.1,2.2-6,3.9-8.6c1.7-2.6,3.7-5,6-7c2.3-2.1,4.9-3.9,7.7-5.3c2.8-1.4,5.8-2.6,9-3.3
	c3.2-0.8,6.4-1.2,9.8-1.2c3.4,0,6.6,0.4,9.8,1.2c3.2,0.8,6.2,1.9,9,3.3s5.4,3.2,7.7,5.3s4.3,4.4,6,7s3,5.5,3.9,8.6
	C179.4,51.3,179.9,54.5,179.9,58z M159.8,57.3c0-1.9-0.1-3.8-0.4-5.9c-0.2-2.1-0.5-4.2-1.1-6.2c-0.5-2-1.2-4-2.1-5.8
	c-0.9-1.9-1.9-3.5-3.2-4.9s-2.8-2.5-4.6-3.3c-1.8-0.9-3.9-1.3-6.3-1.3c-2.3,0-4.3,0.4-6,1.3c-1.8,0.9-3.3,2-4.6,3.5
	c-1.3,1.4-2.4,3-3.3,4.9s-1.6,3.8-2.1,5.9c-0.5,2-0.9,4-1.2,6.1c-0.2,2-0.4,3.9-0.4,5.7s0.1,3.7,0.4,5.8c0.2,2,0.6,4.1,1.2,6.1
	c0.5,2,1.2,4,2.1,5.9c0.9,1.8,2,3.5,3.3,4.9s2.9,2.5,4.6,3.4c1.8,0.9,3.8,1.3,6,1.3c2.3,0,4.4-0.4,6.2-1.2c1.8-0.9,3.3-2,4.6-3.4
	s2.4-3,3.3-4.9c0.9-1.8,1.5-3.8,2.1-5.8c0.5-2,0.9-4.1,1.1-6.2C159.7,61.2,159.8,59.2,159.8,57.3z M210.8,91.9H193l-18.5-67.7h19.8
	l11.6,47.5l9.7-47.5h17.8L245.2,73l11.4-48.8h13.7l-20.5,67.7H232l-10-41.1L210.8,91.9z M331.6,30.2l-11.1,18.5
	c-0.5-1.6-1.1-3.3-1.8-5.3c-0.7-2-1.7-3.8-2.8-5.4c-1.1-1.7-2.4-3.1-3.9-4.3s-3.3-1.8-5.3-1.8c-1.8,0-3.4,0.5-4.8,1.4
	c-1.3,0.9-2.5,2.2-3.4,3.7s-1.7,3.2-2.3,5.1c-0.6,1.9-1.1,3.8-1.4,5.7s-0.5,3.8-0.6,5.6S294,56.7,294,58v33.9h-19.9V24.2h7.6l8,15.8
	c1.1-2.5,2.3-4.9,3.8-7c1.4-2.1,3-4,4.9-5.5c1.8-1.6,3.9-2.8,6.2-3.6c2.3-0.9,5-1.3,7.9-1.3c1.5,0,3.2,0.1,5.1,0.4
	c1.9,0.2,3.7,0.7,5.5,1.3c1.8,0.6,3.5,1.4,5,2.3C329.5,27.6,330.7,28.8,331.6,30.2z"/>
<polygon class="st0" points="360.2,91.5 336.9,91.5 336.9,17.8 313.9,17.8 313.9,7.1 383.2,7.1 383.2,17.8 360.2,17.8 "/>
<path class="st0" d="M403.9,92.8c-3.4,0-6.6-0.4-9.8-1.2c-3.2-0.8-6.2-1.9-9-3.3s-5.3-3.2-7.7-5.3c-2.3-2.1-4.4-4.5-6-7.1
	s-2.9-5.5-3.9-8.6c-0.9-3.1-1.4-6.4-1.4-9.9s0.5-6.8,1.4-9.8c0.9-3.1,2.2-6,3.9-8.6c1.7-2.6,3.7-5,6-7c2.3-2.1,4.9-3.9,7.7-5.3
	c2.8-1.4,5.8-2.6,9-3.3c3.2-0.8,6.4-1.2,9.8-1.2s6.6,0.4,9.8,1.2c3.2,0.8,6.2,1.9,9,3.3s5.4,3.2,7.7,5.3c2.3,2.1,4.3,4.4,6,7
	s3,5.5,3.9,8.6s1.4,6.3,1.4,9.8s-0.5,6.8-1.4,9.9s-2.2,5.9-3.9,8.6c-1.6,2.6-3.6,5-6,7.1c-2.3,2.1-4.9,3.8-7.7,5.3
	c-2.8,1.4-5.8,2.6-9,3.3C410.5,92.5,407.3,92.8,403.9,92.8"/>
<path class="st1" d="M421.5,57.5c0-1.9-0.1-3.8-0.4-5.9c-0.2-2.1-0.5-4.2-1.1-6.2c-0.5-2-1.2-4-2.1-5.8c-0.9-1.9-1.9-3.5-3.2-4.9
	s-2.8-2.5-4.6-3.3c-1.8-0.9-3.9-1.3-6.3-1.3c-2.3,0-4.3,0.4-6,1.3c-1.8,0.9-3.3,2-4.6,3.5c-1.3,1.4-2.4,3-3.3,4.9s-1.6,3.8-2.1,5.9
	c-0.5,2-0.9,4-1.2,6.1c-0.2,2-0.4,3.9-0.4,5.7s0.1,3.7,0.4,5.8c0.2,2,0.6,4.1,1.2,6.1c0.5,2,1.2,4,2.1,5.9c0.9,1.8,2,3.5,3.3,4.9
	s2.9,2.5,4.6,3.4c1.8,0.9,3.8,1.3,6,1.3c2.3,0,4.4-0.4,6.2-1.2c1.8-0.9,3.3-2,4.6-3.4c1.3-1.4,2.4-3,3.3-4.9
	c0.9-1.8,1.5-3.8,2.1-5.8c0.5-2,0.9-4.1,1.1-6.2C421.4,61.3,421.5,59.3,421.5,57.5z"/>
<polygon class="st0" points="472.7,90.7 454.9,90.7 436.4,23 456.2,23 467.8,70.5 477.5,23 495.3,23 507.1,71.8 518.5,23 532.2,23 
	511.7,90.7 493.9,90.7 483.9,49.5 "/>
<path class="st0" d="M593.3,29.8l-11.1,18.5c-0.5-1.6-1.1-3.3-1.8-5.3s-1.7-3.8-2.8-5.4c-1.1-1.7-2.4-3.1-3.9-4.3s-3.3-1.8-5.3-1.8
	c-1.8,0-3.4,0.5-4.8,1.4c-1.3,0.9-2.5,2.2-3.4,3.7s-1.7,3.2-2.3,5.1c-0.6,1.9-1.1,3.8-1.4,5.7s-0.5,3.8-0.6,5.6s-0.2,3.3-0.2,4.6
	v33.9h-19.9V23.8h7.6l8,15.8c1.1-2.5,2.3-4.9,3.8-7c1.4-2.1,3-4,4.9-5.5c1.8-1.6,3.9-2.8,6.2-3.6c2.3-0.9,5-1.3,7.9-1.3
	c1.5,0,3.2,0.1,5.1,0.4c1.9,0.2,3.7,0.7,5.5,1.3s3.5,1.4,5,2.3C591.2,27.2,592.4,28.3,593.3,29.8"/>
<g>
	<polygon class="st2" points="78.6,93.3 81.3,21.9 83,21.9 85.6,93.3 	"/>
</g>
<g>
	<polygon class="st2" points="97.3,93 99.9,21.5 101.6,21.5 104.3,93 	"/>
</g>
<g>
	<path class="st2" d="M100.4,22.8c-2-4.1-3.8-8.5-6.5-12c-1.8-2.2-3.4-2.3-5.3-0.1c-2.7,3.4-4.4,7.9-6.4,12.1l-0.9-0.3
		c1.2-5.7,2.6-12.1,7.2-15.8c7.7-4.7,11.9,9.8,13,15.8C101.4,22.5,100.4,22.8,100.4,22.8L100.4,22.8z"/>
</g>
<path class="st2" d="M123.2,0"/>
</svg>
